<svg xmlns="http://www.w3.org/2000/svg" xmlns:xlink="http://www.w3.org/1999/xlink" width="881.774" height="370.319" viewBox="0 0 881.774 370.319"><defs><filter id="a" x="0" y="0" width="881.774" height="370.319" filterUnits="userSpaceOnUse"><feOffset dx="5" dy="5" input="SourceAlpha"/><feGaussianBlur stdDeviation="25" result="b"/><feFlood flood-color="#5770ed" flood-opacity="0.2"/><feComposite operator="in" in2="b"/><feComposite in="SourceGraphic"/></filter></defs><g transform="translate(-864.357 -2199.195)"><g transform="matrix(1, 0, 0, 1, 864.36, 2199.2)" filter="url(#a)"><path d="M18.512,0H713.262a18.512,18.512,0,0,1,18.512,18.512v183.3a18.512,18.512,0,0,1-18.512,18.512H18.512A18.512,18.512,0,0,1,0,201.807V18.512A18.512,18.512,0,0,1,18.512,0Z" transform="translate(70 70)" fill="#fff"/></g><path d="M839.774,706.537a2.23,2.23,0,0,1-1.587-.658L830.61,698.3l-7.578,7.576a2.245,2.245,0,0,1-3.174-3.175l7.577-7.578-7.577-7.577a2.245,2.245,0,1,1,3.174-3.175l7.578,7.577,7.577-7.577a2.245,2.245,0,1,1,3.174,3.175l-7.576,7.577,7.576,7.578a2.245,2.245,0,0,1-1.587,3.833Z" transform="translate(787.636 1618.902)" fill="#9397ad"/><text transform="translate(968.6 2307.822)" fill="#020a17" font-size="27" font-family="AvertaStd-Regular, Averta Std" letter-spacing="0.009em"><tspan x="0" y="29">Love that orange tone. Could you tweak that </tspan><tspan x="0" y="62">form a bit please?</tspan></text><path d="M758.518,782.1H837.2a22.819,22.819,0,0,1,22.818,22.819h0A22.818,22.818,0,0,1,837.2,827.74H758.518A22.819,22.819,0,0,1,735.7,804.921h0A22.82,22.82,0,0,1,758.518,782.1Z" transform="translate(769.301 1639.898)" fill="#5770ed"/><text transform="translate(1541 2453)" fill="#fff" font-size="22" font-family="AvertaStd-Semibold, Averta Std" font-weight="600" letter-spacing="-0.009em"><tspan x="0" y="0">Send</tspan></text></g></svg>