<?xml version="1.0" encoding="utf-8"?>
<!-- Generator: Adobe Illustrator 23.0.3, SVG Export Plug-In . SVG Version: 6.00 Build 0)  -->
<svg version="1.1" id="Ebene_1" xmlns="http://www.w3.org/2000/svg" xmlns:xlink="http://www.w3.org/1999/xlink" x="0px" y="0px"
	 viewBox="0 0 60.4 34.7" style="enable-background:new 0 0 60.4 34.7;" xml:space="preserve">
<style type="text/css">
	.st0{opacity:0.38;fill:#7583F7;enable-background:new    ;}
	.st1{fill:none;stroke:#5061F5;stroke-width:4.9;stroke-linecap:round;stroke-linejoin:round;}
	.st2{fill:none;stroke:#F49351;stroke-width:4.9;stroke-linecap:round;stroke-miterlimit:10;}
</style>
<g id="Gruppe_1237" transform="translate(3607.667 -4703.69)">
	<g transform="matrix(1, 0, 0, 1, -3607.67, 4703.69)">
		<path id="Pfad_809-2" class="st0" d="M38.3,33.2c-5.7-0.2-5.9-5.7-3.4-11.1c3.6-6.9,17.4-10.8,19.7-7.9c0.8,1-2,2.7-1.7,6
			c0.3,3.7,0.1,7.4-0.8,11.1c-0.4,2,1.7-3.4-5.9,0.4C43.4,33.1,38.8,33.2,38.3,33.2z"/>
	</g>
	<path id="Pfad_805" class="st1" d="M-3592.4,4725.1h-4.8c-2.2,0-4-1.8-4-4l0,0v-8.9c0-0.4-0.1-0.8-0.4-1.1l-3.8-5h36.1
		c2.2,0,4,1.8,4,4v4.3"/>
	<path id="Pfad_806" class="st1" d="M-3586.4,4736h28.3c2.2,0,4-1.8,4-4c0,0,0,0,0,0v-8.5c0-0.4,0.1-0.7,0.3-1l4-5.4h-36.7
		c-2.2,0-4,1.8-4,4l0,0v11C-3590.4,4734.2-3588.6,4736-3586.4,4736z"/>
	<path id="Pfad_807" class="st2" d="M-3563,4726.6h-17.3"/>
</g>
</svg>
