<?xml version="1.0" encoding="utf-8"?>
<!-- Generator: Adobe Illustrator 23.0.3, SVG Export Plug-In . SVG Version: 6.00 Build 0)  -->
<svg version="1.1" id="Ebene_1" xmlns="http://www.w3.org/2000/svg" xmlns:xlink="http://www.w3.org/1999/xlink" x="0px" y="0px"
	 viewBox="0 0 69.8 57.4" style="enable-background:new 0 0 69.8 57.4;" xml:space="preserve">
<style type="text/css">
	.st0{filter:url(#Pfad_820);}
	.st1{opacity:0.38;fill:#7583F7;enable-background:new    ;}
	.st2{fill:none;stroke:#5061F5;stroke-width:4.9;stroke-linecap:round;stroke-linejoin:round;}
	.st3{fill:none;}
	.st4{fill:#F49351;}
</style>
<filter  filterUnits="userSpaceOnUse" height="185.465" id="Pfad_820" width="185.465" x="0" y="0">
	<feOffset  dx="22.677" dy="8.504" input="SourceAlpha"></feOffset>
	<feGaussianBlur  result="blur" stdDeviation="21.26"></feGaussianBlur>
	<feFlood  flood-opacity="0.078"></feFlood>
	<feComposite  in2="blur" operator="in"></feComposite>
	<feComposite  in="SourceGraphic" operator="over"></feComposite>
</filter>
<g id="Gruppe_1281" transform="translate(-1217.608 -6203.713)">
	<g transform="matrix(1, 0, 0, 1, 1217.61, 6203.71)" class="st0">
		<path id="Pfad_820-2_1_" class="st1" d="M15.3,46.1c-0.9-4.8,0.8-13,8.3-20.7c7.9-8.3,18.6-14.4,28.7-13.2
			c0.7,1.1-0.1,11.2-0.8,15.7c0.1,6.3,0,10.7,0,14.4c-6.5-1.5-4.9,3.4-7.9,4.3c-3.4-0.1-8.8,0.2-12.2-0.5
			C25.2,44.1,16.4,46,15.3,46.1z"/>
	</g>
	<g id="Gruppe_1280">
		<g id="Gruppe_1242" transform="translate(1252.074 6257)">
			<path id="Pfad_818" class="st2" d="M5-15.4h-34.3c-1.5,0-2.7-1.2-2.7-2.7c0,0,0,0,0,0v-30.1c0-1.5,1.2-2.7,2.7-2.7c0,0,0,0,0,0
				h48.8c1.5,0,2.7,1.2,2.7,2.7c0,0,0,0,0,0v19.2"/>
			<g id="Pfad_819" transform="translate(-549.532 -97.712)">
				<path class="st3" d="M566.3,79.7l-2.1,16.7c0,0.4,0.2,0.7,0.6,0.7c0.2,0,0.4,0,0.5-0.2l5.5-5.4c0.1-0.1,0.3-0.2,0.5-0.2l8,0.4
					c0.4,0,0.7-0.3,0.7-0.6c0-0.2-0.1-0.4-0.2-0.5l-12.4-11.5c-0.3-0.2-0.7-0.2-0.9,0C566.4,79.4,566.4,79.5,566.3,79.7z"/>
				<path class="st4" d="M567,79.1c-0.3,0-0.6,0.2-0.7,0.6l-2.1,16.7c-0.1,0.4,0.3,0.8,0.7,0.8c0.2,0,0.3-0.1,0.5-0.2l5.5-5.4
					c0.1-0.1,0.3-0.2,0.5-0.2c0,0,0,0,0,0l8,0.4c0,0,0,0,0,0c0.6,0,0.9-0.7,0.4-1.2l-12.4-11.5C567.3,79.1,567.2,79.1,567,79.1
					 M567,74.4c1.3,0,2.6,0.5,3.6,1.4l12.4,11.5c1.6,1.5,2.2,3.8,1.4,5.9c-0.8,2.1-2.8,3.4-5,3.4c-0.1,0-0.2,0-0.3,0v0l-6.2-0.3
					l-4.2,4.1c0,0,0,0,0,0c-1,1-2.3,1.5-3.7,1.5c-1.5,0-3-0.7-4-1.8c-1-1.1-1.5-2.7-1.3-4.2h0l2.1-16.7
					C562,76.4,564.3,74.4,567,74.4z"/>
			</g>
		</g>
	</g>
</g>
</svg>
