<?xml version="1.0" encoding="utf-8"?>
<!-- Generator: Adobe Illustrator 23.0.3, SVG Export Plug-In . SVG Version: 6.00 Build 0)  -->
<svg version="1.1" id="Ebene_1" xmlns="http://www.w3.org/2000/svg" xmlns:xlink="http://www.w3.org/1999/xlink" x="0px" y="0px"
	 viewBox="0 0 54.4 48" style="enable-background:new 0 0 54.4 48;" xml:space="preserve">
<style type="text/css">
	.st0{fill:#CACFFB;}
	.st1{fill:none;stroke:#5061F5;stroke-width:4.9;stroke-miterlimit:10;}
	.st2{fill:none;stroke:#5061F5;stroke-width:4.9;stroke-linecap:round;stroke-miterlimit:10;}
	.st3{fill:none;stroke:#F49351;stroke-width:4.9;}
</style>
<g id="Gruppe_1244" transform="translate(-1249.612 -4644.548)">
	<g transform="matrix(1, 0, 0, 1, 1249.61, 4644.55)">
		<path id="Pfad_821-2" class="st0" d="M41.5,22.8c4.2-0.7,8.1,2.5,9.8,4.9c4.6,6.3,2.9,17.8-2.1,19.8c-4.1,1.6-10.3-3.2-12.7-8.7
			c-1.9-4.5-2.2-11.3,1.4-14.4C39,23.5,40.2,23,41.5,22.8z"/>
	</g>
	<g id="Gruppe_1243" transform="translate(1258.006 4679.614)">
		<ellipse id="Ellipse_7" class="st1" cx="6.8" cy="-25.2" rx="7.2" ry="7.2"/>
		<path id="Pfad_761" class="st2" d="M14.4-9c-2.2-1.6-4.8-2.4-7.5-2.4l0,0c-7.1,0-12.9,5.8-12.9,12.9V5c0,3,2.4,5.4,5.4,5.4h13.1"
			/>
		<path id="Pfad_822" class="st3" d="M30.3-32.6c4.1,0,7.4,3.3,7.4,7.4s-3.3,7.4-7.4,7.4s-7.4-3.3-7.4-7.4c0,0,0,0,0,0
			C22.9-29.3,26.2-32.6,30.3-32.6z"/>
		<path id="Rechteck_1859" class="st1" d="M30.7-11.2L30.7-11.2c7.1,0,12.9,5.8,12.9,12.9c0,0,0,0,0,0v3.5c0,3-2.4,5.4-5.4,5.4
			c0,0,0,0,0,0H23.1c-3,0-5.4-2.4-5.4-5.4c0,0,0,0,0,0V1.7C17.8-5.5,23.5-11.2,30.7-11.2C30.7-11.2,30.7-11.2,30.7-11.2z"/>
	</g>
</g>
</svg>
