<svg xmlns="http://www.w3.org/2000/svg" xmlns:xlink="http://www.w3.org/1999/xlink" width="869.502" height="500" viewBox="0 0 869.502 500"><defs><filter id="a" x="0" y="0" width="869.502" height="500" filterUnits="userSpaceOnUse"><feOffset dx="5" dy="5" input="SourceAlpha"/><feGaussianBlur stdDeviation="30" result="b"/><feFlood flood-opacity="0.2"/><feComposite operator="in" in2="b"/><feComposite in="SourceGraphic"/></filter></defs><g transform="translate(-864 -3436.542)"><g transform="matrix(1, 0, 0, 1, 864, 3436.54)" filter="url(#a)"><rect width="689.502" height="320" rx="20" transform="translate(85 85)" fill="#fff"/></g><text transform="translate(1032.769 3739.496)" fill="#2a3341" font-size="24" font-family="AvertaStd-Regular, Averta Std" letter-spacing="0.019em"><tspan x="0" y="0">www.tweakr.io/3sjd31jsfjssfsfjkdskdsjlfkj</tspan></text><rect width="61.686" height="82.236" transform="translate(1372.94 3691.447)" fill="#fff"/><path d="M1238.193,767.123h491.164a41.15,41.15,0,0,1,41.15,41.15h0a41.149,41.149,0,0,1-41.15,41.15H1238.193a41.149,41.149,0,0,1-41.15-41.15h0A41.151,41.151,0,0,1,1238.193,767.123Z" transform="translate(-196.227 2924.323)" fill="none"/><path d="M1238.971,768.123h509.335c22.6,0,40.928,17.686,40.928,39.5h0c0,21.816-18.324,39.5-40.928,39.5H1238.971c-22.6,0-40.928-17.684-40.928-39.5h0C1198.043,785.809,1216.367,768.123,1238.971,768.123Z" transform="translate(-195.545 2925.005)" fill="none" stroke="#f5f6fa" stroke-width="2"/><text transform="translate(1139 3632.513)" fill="#4b4e59" font-size="37" font-family="AvertaStd-Semibold, Averta Std" font-weight="600" letter-spacing="0.009em"><tspan x="0" y="0">Share Workspace</tspan></text><path d="M1564.32,710.727a2.386,2.386,0,0,1-1.7-.7l-8.1-8.1-8.1,8.1a2.4,2.4,0,0,1-3.392-3.392l8.1-8.1-8.1-8.1a2.4,2.4,0,0,1,1.7-4.095,2.376,2.376,0,0,1,1.7.7l8.1,8.1,8.1-8.1a2.4,2.4,0,1,1,3.392,3.392l-8.1,8.1,8.1,8.1a2.4,2.4,0,0,1-1.7,4.1Z" transform="translate(39.163 2869.254)" fill="#9397ad"/><path d="M1564.49,710.477a1.979,1.979,0,0,0,1.4-3.378l-8.4-8.393,8.4-8.4a1.978,1.978,0,1,0-2.8-2.8l-8.4,8.393-8.393-8.4a1.979,1.979,0,0,0-2.8,2.8l8.394,8.4L1543.5,707.1a1.979,1.979,0,1,0,2.8,2.8l8.393-8.393,8.4,8.393a1.972,1.972,0,0,0,1.4.58m0,.841a2.807,2.807,0,0,1-1.994-.826l-7.8-7.8-7.8,7.8a2.82,2.82,0,0,1-3.988-3.987l7.8-7.8-7.8-7.8a2.819,2.819,0,0,1,1.995-4.813,2.794,2.794,0,0,1,1.993.826l7.8,7.8,7.8-7.8a2.819,2.819,0,1,1,3.987,3.987l-7.8,7.8,7.8,7.8a2.819,2.819,0,0,1-1.993,4.813Z" transform="translate(38.992 2869.083)" fill="#9397ad"/><g transform="translate(1404 3693)" fill="#4d5eee" stroke="#707070" stroke-width="1"><rect width="190" height="79" rx="39.5" stroke="none"/><rect x="0.5" y="0.5" width="189" height="78" rx="39" fill="none"/></g><text transform="translate(1465 3742)" fill="#fff" font-size="27" font-family="AvertaStd-Semibold, Averta Std" font-weight="600" letter-spacing="0.02em"><tspan x="0" y="0">Copy</tspan></text></g></svg>