<?xml version="1.0" encoding="utf-8"?>
<!-- Generator: Adobe Illustrator 23.0.3, SVG Export Plug-In . SVG Version: 6.00 Build 0)  -->
<svg version="1.1" id="Ebene_1" xmlns="http://www.w3.org/2000/svg" xmlns:xlink="http://www.w3.org/1999/xlink" x="0px" y="0px"
	 viewBox="0 0 187.4 33.5" style="enable-background:new 0 0 187.4 33.5;" xml:space="preserve">
<style type="text/css">
	.st0{fill:#323C4D;}
	.st1{fill:#5061F5;}
</style>
<g id="Wordmark" transform="translate(84.262 -136.688)">
	<g id="Gruppe_1135" transform="translate(75.739 199.945)">
		<path id="Pfad_678" class="st0" d="M-150.7-31.5v-26.7h-8.1c-0.7,0-1.2-0.6-1.2-1.2c0,0,0,0,0,0V-62c0-0.7,0.6-1.2,1.2-1.2h22
			c0.7,0,1.2,0.6,1.2,1.2v2.5c0,0.7-0.6,1.2-1.2,1.2h-8.2v26.7c0,0.7-0.6,1.2-1.2,1.2h-3.1C-150.1-30.3-150.7-30.8-150.7-31.5z"/>
		<path id="Pfad_679" class="st0" d="M-109.4-53.3h2c0.9,0,1.6,0.7,1.6,1.6c0,0.2,0,0.3-0.1,0.5l-6.8,19.8c-0.2,0.6-0.8,1.1-1.5,1.1
			h-2.6c-0.7,0-1.3-0.5-1.5-1.1l-4-13.4l-4.2,13.4c-0.2,0.7-0.8,1.1-1.5,1.1h-2.3c-0.7,0-1.3-0.4-1.5-1.1l-6.8-19.8
			c-0.3-0.8,0.2-1.7,1-2c0.2-0.1,0.3-0.1,0.5-0.1h2c0.7,0,1.3,0.4,1.5,1.1l4.6,14h0.1l4.1-14c0.2-0.7,0.8-1.1,1.5-1.1h2.1
			c0.7,0,1.3,0.5,1.5,1.1l4.1,14l0.1,0l4.6-14.1C-110.7-52.9-110.1-53.3-109.4-53.3z"/>
		<path id="Pfad_680" class="st0" d="M-81.9-42.1c0,0.2,0,0.4,0,0.6c0,0.8-0.7,1.5-1.6,1.5h-15.5c0.3,1.5,1.1,2.9,2.3,3.9
			c1.2,1,2.8,1.5,4.3,1.4c1.8,0.1,3.5-0.6,4.9-1.7c0.6-0.5,1.5-0.5,2.1,0l1.4,1.2c0.7,0.6,0.7,1.6,0.2,2.3c0,0-0.1,0.1-0.1,0.1
			c-2.4,2.1-5.5,3.2-8.6,3.1c-6.3,0.2-11.6-4.7-11.9-11c0-0.3,0-0.7,0-1c-0.1-3.2,1-6.3,3.2-8.6c4.5-4.4,11.8-4.5,16.3-0.1
			C-82.9-48.2-81.8-45.2-81.9-42.1z M-89.4-47.4c-1-0.9-2.3-1.3-3.6-1.2c-1.4,0-2.7,0.4-3.8,1.2c-1.1,0.9-1.8,2.1-2.1,3.4h11.4
			C-87.8-45.3-88.4-46.5-89.4-47.4L-89.4-47.4z"/>
		<path id="Pfad_681" class="st0" d="M-20.6-53.6c-1.8,0-3.6,0.5-5.2,1.5v0c-0.2-0.7-0.8-1.2-1.5-1.2h-1.9c-0.8,0-1.5,0.7-1.5,1.5
			v20.1c0,0.8,0.7,1.5,1.5,1.5h1.9c0.8,0,1.5-0.7,1.5-1.5v-12.1c0.1-2.7,2.4-4.9,5.1-4.8c0,0,0,0,0.1,0c0.8,0,1.5-0.7,1.5-1.5v-2
			C-19.1-52.9-19.8-53.6-20.6-53.6C-20.6-53.6-20.6-53.6-20.6-53.6z"/>
		<path id="Pfad_682" class="st0" d="M-34.3-32.8l-9.9-9.2l9.3-8.7c0.6-0.6,0.6-1.6,0-2.2c-0.3-0.3-0.7-0.4-1.1-0.4h-2.7
			c-0.4,0-0.7,0.1-1,0.4l-7.4,6.8v-15.5c0-0.8-0.7-1.5-1.5-1.5h-2c-0.8,0-1.5,0.7-1.5,1.5v29.9c0,0.8,0.7,1.5,1.5,1.5l0,0h2
			c0.8,0,1.5-0.7,1.5-1.5l0,0V-38l7.9,7.4c0.3,0.3,0.6,0.4,1,0.4h2.7c0.8,0,1.5-0.7,1.5-1.5C-33.8-32.2-34-32.5-34.3-32.8
			L-34.3-32.8z"/>
		<path id="Pfad_683" class="st0" d="M-55.8-51.8c0-0.8-0.7-1.5-1.5-1.5c0,0,0,0,0,0h-2c-0.8,0-1.5,0.7-1.5,1.5c0,0,0,0,0,0v0.4
			c-2-1.5-4.4-2.4-6.9-2.4c-6.6-0.2-12.2,5.1-12.3,11.7C-80.3-35.5-75-30-68.4-29.8c2.7,0.1,5.4-0.8,7.6-2.4v0.4
			c0,0.8,0.7,1.5,1.5,1.5c0,0,0,0,0,0h2c0.8,0,1.5-0.7,1.5-1.5c0,0,0,0,0,0L-55.8-51.8z M-67.7-34.8c-3.9,0-7.1-3.2-7.1-7.1
			s3.2-7.1,7.1-7.1s7.1,3.2,7.1,7.1C-60.7-38-63.8-34.8-67.7-34.8L-67.7-34.8z"/>
	</g>
	<g id="Gruppe_1136" transform="translate(218.282 201.895)">
		<path id="Pfad_684" class="st1" d="M-156.6-38.8c-1.9,0-3.4,1.5-3.4,3.4c0,0.9,0.4,1.8,1,2.4l0,0c1.3,1.3,3.5,1.4,4.8,0
			c1.3-1.3,1.4-3.5,0-4.8C-154.8-38.4-155.7-38.8-156.6-38.8z"/>
		<path id="Rechteck_1819" class="st1" d="M-145.8-55.4L-145.8-55.4c1.4,0,2.6,1.2,2.6,2.6V-35c0,1.4-1.2,2.6-2.6,2.6l0,0
			c-1.4,0-2.6-1.2-2.6-2.6v-17.8C-148.4-54.2-147.2-55.4-145.8-55.4z"/>
		<path id="Pfad_685" class="st1" d="M-144-62.8c-1.1-0.6-2.4-0.6-3.5,0c-0.9,0.5-1.5,1.6-1.4,2.6c0,1.1,0.5,2.1,1.5,2.7
			c1.1,0.6,2.4,0.6,3.5,0c0.9-0.6,1.5-1.6,1.5-2.7C-142.6-61.2-143.1-62.2-144-62.8z"/>
		<path id="Pfad_686" class="st1" d="M-118.6-52.4c-4.7-4.6-12.3-4.6-17,0c-2.3,2.2-3.6,5.3-3.5,8.5c-0.1,3.2,1.2,6.3,3.5,8.5l0,0
			c4.7,4.6,12.3,4.6,17,0c2.3-2.2,3.6-5.3,3.5-8.5C-115-47.1-116.3-50.1-118.6-52.4z M-127.1-37.1c-1.8,0-3.6-0.7-4.8-2
			c-2.6-2.7-2.6-7,0-9.7c1.3-1.3,3-2,4.8-2c3.8,0,6.8,3.1,6.8,6.8C-120.3-40.1-123.3-37.1-127.1-37.1L-127.1-37.1z"/>
	</g>
</g>
</svg>
