<svg xmlns="http://www.w3.org/2000/svg" xmlns:xlink="http://www.w3.org/1999/xlink" width="658.754" height="718.137" viewBox="0 0 658.754 718.137"><defs><filter id="a" x="0" y="0" width="658.754" height="718.137" filterUnits="userSpaceOnUse"><feOffset dx="5" dy="5" input="SourceAlpha"/><feGaussianBlur stdDeviation="30" result="b"/><feFlood flood-opacity="0.2"/><feComposite operator="in" in2="b"/><feComposite in="SourceGraphic"/></filter><filter id="c" x="115.474" y="229.271" width="419.444" height="106" filterUnits="userSpaceOnUse"><feOffset dy="3" input="SourceAlpha"/><feGaussianBlur stdDeviation="4" result="d"/><feFlood flood-opacity="0.051"/><feComposite operator="in" in2="d"/><feComposite in="SourceGraphic"/></filter><filter id="e" x="115.474" y="132.271" width="419.444" height="106" filterUnits="userSpaceOnUse"><feOffset dy="3" input="SourceAlpha"/><feGaussianBlur stdDeviation="4" result="f"/><feFlood flood-opacity="0.051"/><feComposite operator="in" in2="f"/><feComposite in="SourceGraphic"/></filter><filter id="g" x="115.474" y="326.271" width="419.444" height="106" filterUnits="userSpaceOnUse"><feOffset dy="3" input="SourceAlpha"/><feGaussianBlur stdDeviation="4" result="h"/><feFlood flood-opacity="0.051"/><feComposite operator="in" in2="h"/><feComposite in="SourceGraphic"/></filter><filter id="i" x="246.474" y="543.271" width="151.1" height="57" filterUnits="userSpaceOnUse"><feOffset dy="3" input="SourceAlpha"/><feGaussianBlur stdDeviation="3" result="j"/><feFlood flood-color="#5b77ff" flood-opacity="0.2"/><feComposite operator="in" in2="j"/><feComposite in="SourceGraphic"/></filter><filter id="k" x="276.474" y="551.271" width="90" height="40" filterUnits="userSpaceOnUse"><feOffset dy="3" input="SourceAlpha"/><feGaussianBlur stdDeviation="3" result="l"/><feFlood flood-color="#5b77ff" flood-opacity="0.2"/><feComposite operator="in" in2="l"/><feComposite in="SourceGraphic"/></filter></defs><g transform="translate(-332.526 -2650)"><g transform="matrix(1, 0, 0, 1, 332.53, 2650)" filter="url(#a)"><rect width="478.754" height="538.137" rx="21.29" transform="translate(85 85)" fill="#fff"/></g><g transform="translate(-35 198.271)"><g transform="matrix(1, 0, 0, 1, 367.53, 2451.73)" filter="url(#c)"><rect width="395.444" height="82" rx="7" transform="translate(127.47 238.27)" fill="#fff"/></g><g transform="matrix(1, 0, 0, 1, 367.53, 2451.73)" filter="url(#e)"><rect width="395.444" height="82" rx="7" transform="translate(127.47 141.27)" fill="#fff"/></g><text transform="translate(579.966 2641.771)" fill="#9397ad" font-size="10" font-family="AvertaStd-Semibold, Averta Std" font-weight="600"><tspan x="0" y="0">Uploading…</tspan></text><text transform="translate(579.966 2625)" fill="#323c4d" font-size="14" font-family="AvertaStd-Semibold, Averta Std" font-weight="600"><tspan x="0" y="0">tweakr_is_logo_01.jpg</tspan></text><rect width="190" height="5" rx="2" transform="translate(622.466 2649.5)" fill="#f5f6fa"/><path d="M2,0H145a0,0,0,0,1,0,0V5a0,0,0,0,1,0,0H2A2,2,0,0,1,0,3V2A2,2,0,0,1,2,0Z" transform="translate(580 2649.5)" fill="#5770ed"/><rect width="44" height="44" rx="8" transform="translate(516 2612)" fill="#fd5858"/><text transform="translate(538.524 2638)" fill="#fff" font-size="12" font-family="AvertaStd-Bold, Averta Std" font-weight="700"><tspan x="-11.616" y="0">PDF</tspan></text><text transform="translate(579.966 2738.771)" fill="#9397ad" font-size="10" font-family="AvertaStd-Semibold, Averta Std" font-weight="600"><tspan x="0" y="0">Uploading…</tspan></text><text transform="translate(579.966 2722)" fill="#323c4d" font-size="14" font-family="AvertaStd-Semibold, Averta Std" font-weight="600"><tspan x="0" y="0">tweakr_is_logo_01.jpg</tspan></text><rect width="190" height="5" rx="2" transform="translate(622.466 2746.5)" fill="#f5f6fa"/><path d="M2,0H49a0,0,0,0,1,0,0V5a0,0,0,0,1,0,0H2A2,2,0,0,1,0,3V2A2,2,0,0,1,2,0Z" transform="translate(580 2746.5)" fill="#5770ed"/><rect width="44" height="44" rx="8" transform="translate(516 2709)" fill="#5770ed"/><text transform="translate(538.524 2735)" fill="#fff" font-size="12" font-family="AvertaStd-Bold, Averta Std" font-weight="700"><tspan x="-11.262" y="0">JPG</tspan></text><g transform="matrix(1, 0, 0, 1, 367.53, 2451.73)" filter="url(#g)"><rect width="395.444" height="82" rx="7" transform="translate(127.47 335.27)" fill="#fff"/></g><text transform="translate(579.966 2835.771)" fill="#9397ad" font-size="10" font-family="AvertaStd-Semibold, Averta Std" font-weight="600"><tspan x="0" y="0">Uploading…</tspan></text><text transform="translate(579.966 2819)" fill="#323c4d" font-size="14" font-family="AvertaStd-Semibold, Averta Std" font-weight="600"><tspan x="0" y="0">tweakr_is_logo_01.jpg</tspan></text><rect width="190" height="5" rx="2" transform="translate(622.466 2843.5)" fill="#f5f6fa"/><path d="M2,0H88a0,0,0,0,1,0,0V5a0,0,0,0,1,0,0H2A2,2,0,0,1,0,3V2A2,2,0,0,1,2,0Z" transform="translate(580 2843.5)" fill="#5770ed"/><rect width="44" height="44" rx="8" transform="translate(516 2806)" fill="#5770ed"/><text transform="translate(538.524 2832)" fill="#fff" font-size="12" font-family="AvertaStd-Bold, Averta Std" font-weight="700"><tspan x="-12.75" y="0">PNG</tspan></text></g><g transform="matrix(1, 0, 0, 1, 332.53, 2650)" filter="url(#i)"><path d="M19.5,0h94.1a19.5,19.5,0,0,1,0,39H19.5a19.5,19.5,0,0,1,0-39Z" transform="translate(255.47 549.27)" fill="#5770ed"/></g><g transform="matrix(1, 0, 0, 1, 332.53, 2650)" filter="url(#k)"><text transform="translate(321.47 575.27)" fill="#fff" font-size="17" font-family="AvertaStd-Semibold, Averta Std" font-weight="600" letter-spacing="-0.01em"><tspan x="-35.887" y="0">Continue</tspan></text></g><path d="M1564.32,710.727a2.386,2.386,0,0,1-1.7-.7l-8.1-8.1-8.1,8.1a2.4,2.4,0,0,1-3.392-3.392l8.1-8.1-8.1-8.1a2.4,2.4,0,0,1,1.7-4.095,2.376,2.376,0,0,1,1.7.7l8.1,8.1,8.1-8.1a2.4,2.4,0,1,1,3.392,3.392l-8.1,8.1,8.1,8.1a2.4,2.4,0,0,1-1.7,4.1Z" transform="translate(-698.837 2080.525)" fill="#9397ad"/></g></svg>