<?xml version="1.0" encoding="utf-8"?>
<!-- Generator: Adobe Illustrator 22.0.1, SVG Export Plug-In . SVG Version: 6.00 Build 0)  -->
<svg version="1.1" id="Ebene_1" xmlns="http://www.w3.org/2000/svg" xmlns:xlink="http://www.w3.org/1999/xlink" x="0px" y="0px"
	 viewBox="0 0 130 114" style="enable-background:new 0 0 130 114;" xml:space="preserve">
<style type="text/css">
	.st0{filter:url(#Pfad_758);}
	.st1{opacity:0.15;fill:#5061F5;enable-background:new    ;}
	.st2{fill:none;stroke:#F49351;stroke-width:8.177;stroke-miterlimit:10;}
	.st3{fill:none;stroke:#5061F5;stroke-width:8.824;stroke-linecap:round;stroke-miterlimit:10;}
	.st4{fill:none;stroke:#5061F5;stroke-width:8.177;stroke-miterlimit:10;}
	.st5{fill:none;stroke:#5061F5;stroke-width:8.824;stroke-miterlimit:10;}
</style>
<filter  filterUnits="userSpaceOnUse" height="184.46" id="Pfad_758" width="171.961" x="39.799" y="0">
	<feOffset  dx="22.677" dy="8.504" input="SourceAlpha"></feOffset>
	<feGaussianBlur  result="blur" stdDeviation="21.26"></feGaussianBlur>
	<feFlood  flood-opacity="0.078"></feFlood>
	<feComposite  in2="blur" operator="in"></feComposite>
	<feComposite  in="SourceGraphic" operator="over"></feComposite>
</filter>
<g id="Gruppe_1251" transform="translate(-1428.379 -1539.746)">
	<g transform="matrix(1, 0, 0, 1, 1428.38, 1539.75)" class="st0">
		<path id="Pfad_758-2_1_" class="st1" d="M95.9,52.6c10-1.6,19,5.8,23.1,11.1c10.8,14.2,6.9,40.4-4.9,44.9
			c-9.6,3.7-24.3-7.2-29.9-19.6c-4.6-10.1-5.2-25.5,3.3-32.7C89.9,54.3,92.8,53.1,95.9,52.6z"/>
	</g>
	<g id="Gruppe_1207" transform="translate(12.913 72.913)">
		<circle id="Ellipse_7" class="st2" cx="1451" cy="1489" r="17.7"/>
		<path id="Pfad_761" class="st3" d="M1469.8,1528.6c-5.3-3.8-11.7-5.8-18.3-5.8l0,0c-17.4,0-31.6,14.1-31.6,31.6v8.5
			c0,7.3,5.9,13.1,13.1,13.1h0h31.9"/>
		<circle id="Ellipse_8" class="st4" cx="1508.4" cy="1489" r="18"/>
		<path id="Rechteck_1859" class="st5" d="M1509.4,1523.2L1509.4,1523.2c17.4,0,31.6,14.1,31.6,31.6l0,0v8.5
			c0,7.3-5.9,13.1-13.1,13.1l0,0H1491c-7.2,0-13.1-5.9-13.1-13.1v-8.5C1477.9,1537.4,1492,1523.2,1509.4,1523.2
			C1509.4,1523.2,1509.4,1523.2,1509.4,1523.2z"/>
	</g>
</g>
</svg>
