<?xml version="1.0" encoding="utf-8"?>
<!-- Generator: Adobe Illustrator 22.0.1, SVG Export Plug-In . SVG Version: 6.00 Build 0)  -->
<svg version="1.1" id="Ebene_1" xmlns="http://www.w3.org/2000/svg" xmlns:xlink="http://www.w3.org/1999/xlink" x="0px" y="0px"
	 viewBox="0 0 106 123.5" style="enable-background:new 0 0 106 123.5;" xml:space="preserve">
<style type="text/css">
	.st0{filter:url(#Pfad_756);}
	.st1{opacity:0.15;fill:#5061F5;enable-background:new    ;}
	.st2{fill:none;stroke:#5061F5;stroke-width:9.167;stroke-miterlimit:10;}
	.st3{fill:none;stroke:#F49351;stroke-width:9.167;stroke-linecap:round;stroke-miterlimit:10;}
	.st4{fill:none;stroke:#5061F5;stroke-width:9.167;stroke-linecap:round;stroke-miterlimit:10;}
</style>
<filter  filterUnits="userSpaceOnUse" height="206.976" id="Pfad_756" width="210.815" x="0" y="0">
	<feOffset  dx="22.677" dy="8.504" input="SourceAlpha"></feOffset>
	<feGaussianBlur  result="blur" stdDeviation="21.26"></feGaussianBlur>
	<feFlood  flood-opacity="0.078"></feFlood>
	<feComposite  in2="blur" operator="in"></feComposite>
	<feComposite  in="SourceGraphic" operator="over"></feComposite>
</filter>
<g id="Gruppe_1253" transform="translate(-358.843 -1515.013)">
	<g transform="matrix(1, 0, 0, 1, 358.84, 1515.01)" class="st0">
		<path id="Pfad_756-2_1_" class="st1" d="M80.9,106.3c-13,9-40.3,19.1-55.3,4.5c-13.1-12.7-10-37.3,0.6-51.8
			c15.7-21.4,52.3-27.3,66.9-10.6c9.5,10.8,8.7,30,1.6,43.1C91.4,97.4,86.6,102.5,80.9,106.3z"/>
	</g>
	<g id="Gruppe_1204" transform="translate(387.619 1536.184)">
		<g id="Gruppe_1203">
			<circle id="Ellipse_6" class="st2" cx="24.2" cy="49.3" r="48.4"/>
			<line id="Linie_12" class="st3" x1="44" y1="33.2" x2="24.2" y2="49.3"/>
			<line id="Linie_13" class="st4" x1="24.2" y1="49.3" x2="3.6" y2="31"/>
			<path id="Pfad_759" class="st4" d="M24.2-11.3v-5.3h12.5"/>
			<line id="Linie_14" class="st4" x1="24.2" y1="-16.6" x2="12.7" y2="-16.6"/>
		</g>
	</g>
</g>
</svg>
